# xmcd
# 
# Track frame offsets:
#     150
#     16653
#     33458
#     46056
#     64680
#     80991
#     92025
#     114305
#     130229
#     144844
#     160294
#     175687
#     189877
#     203365
#     216760
# 
# Disc length: 3161
# 
# Revision: 2
# Processed by: cddbd v1.5.2PL0 Copyright (c) Steve Scherf et al.
# Submitted via: BonkEnc v1.0.6
# 
DISCID=ba0c570f
DTITLE=André e Adriano - 15 Anos Ao Vivo
DYEAR=2008
DGENRE=Country
TTITLE0=Beber, Cair, Levantar
TTITLE1=A Jiripoca Vai Pia
TTITLE2=Vira e Mexe
TTITLE3=Pout-Porri Vai - Sacramentado
TTITLE4=Gostoso Sentimento
TTITLE5=Rei da Balada
TTITLE6=Pout-Porri Não Quero Falar com Ela - Entre Tapas e Beijos
TTITLE7=Amei
TTITLE8=Mordida de Amor (Love Bites)
TTITLE9=Ter de Volta Seu Amor (Cross My Heart)
TTITLE10=Duvido Muito
TTITLE11=Tá Sobrando Mulher
TTITLE12=Tô Virado no Arreio
TTITLE13=O Fora
TTITLE14=Rapadura
EXTD=YEAR: 2008
EXTT0=
EXTT1=
EXTT2=
EXTT3=
EXTT4=
EXTT5=
EXTT6=
EXTT7=
EXTT8=
EXTT9=
EXTT10=
EXTT11=
EXTT12=
EXTT13=
EXTT14=
PLAYORDER=
